<svg width="125" viewBox="0 0 99 32" fill="none" xmlns="http://www.w3.org/2000/svg">
<path d="M0.0282833 18.2039V24.613H4.51687V18.4812C4.51687 17.8847 4.75333 17.3126 5.17421 16.8907C5.5951 16.4689 6.16595 16.2319 6.76117 16.2319H11.3635C13.5105 16.2313 15.5694 15.376 17.0874 13.8543C18.6053 12.3325 19.4582 10.2689 19.4584 8.11706V8.11706C19.4584 5.96491 18.6054 3.9009 17.0871 2.37899C15.5689 0.857078 13.5096 0.00191376 11.3623 0.00158691L0.0282833 0.00158691V8.01291H4.51687V4.23588H11.0598C12.0757 4.23588 13.05 4.64027 13.7685 5.36012C14.4869 6.07997 14.8907 7.05635 14.8911 8.07453V8.07453C14.8911 9.09294 14.4874 10.0696 13.7689 10.7897C13.0504 11.5099 12.0759 11.9144 11.0598 11.9144H6.30309C5.4789 11.914 4.66272 12.0764 3.9012 12.3924C3.13969 12.7083 2.44777 13.1716 1.86501 13.7557C1.28225 14.3398 0.820084 15.0333 0.504925 15.7966C0.189766 16.5599 0.0277983 17.3779 0.0282833 18.2039V18.2039Z" fill="#6D4AFF"/>
<path d="M6.75995 16.2319C4.97465 16.2321 3.26252 16.943 2.00013 18.2082C0.737731 19.4734 0.0284528 21.1894 0.0282898 22.9787L0.0282898 24.613H4.51688V18.4813C4.51688 17.8849 4.75316 17.313 5.17379 16.8912C5.59441 16.4694 6.16494 16.2323 6.75995 16.2319V16.2319Z" fill="url(#paint0_linear_2242_313)"/>
<path d="M20.1544 24.6136V14.8496C20.1544 10.8662 22.4756 7.69367 27.1185 7.69367C27.8637 7.68278 28.6074 7.7656 29.332 7.94017V11.9569C28.8045 11.9218 28.3482 11.9218 28.1361 11.9218C25.6766 11.9218 24.619 13.0495 24.619 15.3408V24.6136H20.1544Z" fill="#6D4AFF"/>
<path d="M30.67 16.3324C30.67 11.4326 34.3629 7.6962 39.4984 7.6962C44.6338 7.6962 48.3262 11.4301 48.3262 16.3324C48.3262 21.2347 44.6332 25.0013 39.4984 25.0013C34.3636 25.0013 30.67 21.2298 30.67 16.3324ZM43.9304 16.3324C43.9304 13.5475 42.0661 11.5737 39.499 11.5737C36.9319 11.5737 35.067 13.5457 35.067 16.3324C35.067 19.1524 36.9313 21.0911 39.499 21.0911C42.0667 21.0911 43.9304 19.1499 43.9304 16.3324Z" fill="#6D4AFF"/>
<path d="M62.6048 16.3324C62.6048 11.4326 66.2977 7.6962 71.4332 7.6962C76.5686 7.6962 80.2609 11.4301 80.2609 16.3324C80.2609 21.2347 76.568 25.0037 71.4332 25.0037C66.2984 25.0037 62.6048 21.2298 62.6048 16.3324ZM75.8646 16.3324C75.8646 13.5475 74.0003 11.5737 71.4332 11.5737C68.8661 11.5737 67.0012 13.5457 67.0012 16.3324C67.0012 19.1524 68.8655 21.0911 71.4332 21.0911C74.0009 21.0911 75.8646 19.1499 75.8646 16.3324V16.3324Z" fill="#6D4AFF"/>
<path d="M82.5821 24.6136V15.2022C82.5821 10.8311 85.3607 7.6937 90.3197 7.6937C95.2436 7.6937 98.0222 10.8311 98.0222 15.2022V24.6136H93.5908V15.5547C93.5908 13.1229 92.5 11.6069 90.3197 11.6069C88.1393 11.6069 87.0486 13.1229 87.0486 15.5547V24.6136H82.5821Z" fill="#6D4AFF"/>
<path d="M61.2699 11.6063H56.4505V17.775C56.4505 19.9251 57.224 20.9124 59.44 20.9124C59.6509 20.9124 60.1779 20.9124 60.8469 20.8772V24.5082C59.9325 24.7547 59.1252 24.8958 58.2441 24.8958C54.5161 24.8983 51.9853 22.6397 51.9853 18.3746V11.6063H48.9939V8.04619H49.7398C50.0348 8.04635 50.327 7.98821 50.5996 7.87509C50.8722 7.76197 51.1198 7.59609 51.3284 7.38694C51.5369 7.17779 51.7023 6.92948 51.815 6.65622C51.9278 6.38295 51.9856 6.09009 51.9853 5.79439V2.44135H56.4517V8.04619H61.2699V11.6063Z" fill="#6D4AFF"/>
<defs>
<linearGradient id="paint0_linear_2242_313" x1="3.39412" y1="23.4008" x2="3.39412" y2="13.9832" gradientUnits="userSpaceOnUse">
<stop stop-color="#6D4BFD"/>
<stop offset="1" stop-color="#1C0554"/>
</linearGradient>
</defs>
</svg>
